<svg xmlns="http://www.w3.org/2000/svg" xmlns:xlink="http://www.w3.org/1999/xlink" width="500" zoomAndPan="magnify" viewBox="0 0 375 374.999991" height="500" preserveAspectRatio="xMidYMid meet" version="1.0"><defs><g/></defs><rect x="-37.5" width="450" fill="#ffffff" y="-37.499999" height="449.999989" fill-opacity="1"/><rect x="-37.5" width="450" fill="#291b39" y="-37.499999" height="449.999989" fill-opacity="1"/><g fill="#f2f2f4" fill-opacity="1"><g transform="translate(29.387923, 208.499986)"><g><path d="M 26.34375 -35.703125 C 29.550781 -35.703125 32.453125 -34.882812 35.046875 -33.25 C 37.640625 -31.613281 39.707031 -29.425781 41.25 -26.6875 C 42.800781 -23.945312 43.578125 -20.882812 43.578125 -17.5 C 43.578125 -14.113281 42.800781 -11.050781 41.25 -8.3125 C 39.707031 -5.570312 37.640625 -3.382812 35.046875 -1.75 C 32.453125 -0.113281 29.550781 0.703125 26.34375 0.703125 C 24.351562 0.703125 22.523438 0.367188 20.859375 -0.296875 C 19.203125 -0.972656 17.703125 -1.894531 16.359375 -3.0625 L 16.359375 21.09375 L 5.15625 21 L 5.15625 -35 L 16.359375 -34.90625 L 16.359375 -31.9375 C 17.703125 -33.101562 19.203125 -34.019531 20.859375 -34.6875 C 22.523438 -35.363281 24.351562 -35.703125 26.34375 -35.703125 Z M 24.15625 -9.1875 C 26.488281 -9.1875 28.457031 -9.988281 30.0625 -11.59375 C 31.664062 -13.195312 32.46875 -15.164062 32.46875 -17.5 C 32.46875 -19.832031 31.664062 -21.800781 30.0625 -23.40625 C 28.457031 -25.007812 26.488281 -25.8125 24.15625 -25.8125 C 21.820312 -25.8125 19.851562 -25.007812 18.25 -23.40625 C 16.644531 -21.800781 15.84375 -19.832031 15.84375 -17.5 C 15.84375 -15.164062 16.644531 -13.195312 18.25 -11.59375 C 19.851562 -9.988281 21.820312 -9.1875 24.15625 -9.1875 Z M 24.15625 -9.1875 "/></g></g></g><g fill="#f2f2f4" fill-opacity="1"><g transform="translate(75.672817, 208.499986)"><g><path d="M 28.53125 -35 L 40.078125 -35 L 17.671875 21 L 5.953125 21 L 14.171875 0.78125 L -0.4375 -35 L 11.203125 -35 L 19.953125 -11.8125 Z M 28.53125 -35 "/></g></g></g><g fill="#f2f2f4" fill-opacity="1"><g transform="translate(115.395589, 208.499986)"><g><path d="M 46.90625 -35.703125 C 50.75 -35.703125 53.707031 -34.460938 55.78125 -31.984375 C 57.851562 -29.503906 58.890625 -26.222656 58.890625 -22.140625 L 58.890625 0 L 47.78125 0 L 47.78125 -20.296875 C 47.78125 -21.816406 47.296875 -23.113281 46.328125 -24.1875 C 45.367188 -25.269531 44.128906 -25.8125 42.609375 -25.8125 C 40.921875 -25.8125 39.664062 -25.210938 38.84375 -24.015625 C 38.03125 -22.816406 37.625 -21.578125 37.625 -20.296875 L 37.625 0 L 26.421875 0 L 26.421875 -20.296875 C 26.421875 -21.816406 25.953125 -23.113281 25.015625 -24.1875 C 24.085938 -25.269531 22.863281 -25.8125 21.34375 -25.8125 C 19.65625 -25.8125 18.398438 -25.210938 17.578125 -24.015625 C 16.765625 -22.816406 16.359375 -21.578125 16.359375 -20.296875 L 16.359375 0 L 5.15625 0 L 5.15625 -35 L 16.359375 -35 L 16.359375 -30.71875 C 17.523438 -32.226562 18.910156 -33.4375 20.515625 -34.34375 C 22.117188 -35.25 23.914062 -35.703125 25.90625 -35.703125 C 28.113281 -35.703125 30.078125 -35.144531 31.796875 -34.03125 C 33.523438 -32.925781 34.882812 -31.441406 35.875 -29.578125 C 36.976562 -31.503906 38.460938 -33.003906 40.328125 -34.078125 C 42.203125 -35.160156 44.394531 -35.703125 46.90625 -35.703125 Z M 46.90625 -35.703125 "/></g></g></g><g fill="#f2f2f4" fill-opacity="1"><g transform="translate(178.742031, 208.499986)"><g><path d="M 40.78125 -17.59375 L 40.78125 -15.65625 L 14 -15.65625 C 14.226562 -13.15625 15.015625 -11.1875 16.359375 -9.75 C 17.703125 -8.320312 19.628906 -7.609375 22.140625 -7.609375 C 25.984375 -7.609375 28.429688 -9.097656 29.484375 -12.078125 L 40.25 -12.078125 C 39.375 -8.285156 37.375 -5.207031 34.25 -2.84375 C 31.132812 -0.476562 27.15625 0.703125 22.3125 0.703125 C 18.40625 0.703125 14.976562 -0.0507812 12.03125 -1.5625 C 9.082031 -3.082031 6.789062 -5.210938 5.15625 -7.953125 C 3.53125 -10.703125 2.71875 -13.882812 2.71875 -17.5 C 2.71875 -21.175781 3.53125 -24.382812 5.15625 -27.125 C 6.789062 -29.863281 9.066406 -31.988281 11.984375 -33.5 C 14.898438 -35.019531 18.226562 -35.78125 21.96875 -35.78125 C 25.757812 -35.78125 29.050781 -35.019531 31.84375 -33.5 C 34.644531 -31.988281 36.832031 -29.875 38.40625 -27.15625 C 39.988281 -24.445312 40.78125 -21.257812 40.78125 -17.59375 Z M 22.140625 -27.21875 C 20.148438 -27.21875 18.554688 -26.789062 17.359375 -25.9375 C 16.171875 -25.09375 15.285156 -23.914062 14.703125 -22.40625 L 29.21875 -22.40625 C 28.632812 -23.914062 27.773438 -25.09375 26.640625 -25.9375 C 25.503906 -26.789062 24.003906 -27.21875 22.140625 -27.21875 Z M 22.140625 -27.21875 "/></g></g></g><g fill="#f2f2f4" fill-opacity="1"><g transform="translate(222.139604, 208.499986)"><g><path d="M 16.453125 0.703125 C 13.359375 0.703125 10.378906 -0.0234375 7.515625 -1.484375 C 4.660156 -2.941406 2.707031 -5.015625 1.65625 -7.703125 L 9.890625 -11.8125 C 10.703125 -10.351562 11.644531 -9.375 12.71875 -8.875 C 13.800781 -8.382812 14.8125 -8.140625 15.75 -8.140625 C 16.6875 -8.140625 17.429688 -8.328125 17.984375 -8.703125 C 18.535156 -9.085938 18.8125 -9.628906 18.8125 -10.328125 C 18.8125 -10.960938 18.503906 -11.53125 17.890625 -12.03125 C 17.273438 -12.53125 16.179688 -13.070312 14.609375 -13.65625 C 13.265625 -14.175781 11.734375 -14.828125 10.015625 -15.609375 C 8.296875 -16.398438 6.796875 -17.492188 5.515625 -18.890625 C 4.234375 -20.296875 3.59375 -22.164062 3.59375 -24.5 C 3.59375 -26.476562 4.128906 -28.3125 5.203125 -30 C 6.285156 -31.695312 7.800781 -33.070312 9.75 -34.125 C 11.707031 -35.175781 14 -35.703125 16.625 -35.703125 C 19.070312 -35.703125 21.332031 -35.265625 23.40625 -34.390625 C 25.476562 -33.515625 27.15625 -32.40625 28.4375 -31.0625 L 22.84375 -24.765625 C 22.3125 -25.398438 21.5625 -25.976562 20.59375 -26.5 C 19.632812 -27.03125 18.570312 -27.296875 17.40625 -27.296875 C 16.476562 -27.296875 15.78125 -27.101562 15.3125 -26.71875 C 14.84375 -26.34375 14.609375 -25.863281 14.609375 -25.28125 C 14.609375 -24.644531 14.914062 -24.132812 15.53125 -23.75 C 16.144531 -23.375 17.09375 -22.925781 18.375 -22.40625 C 20.0625 -21.757812 21.722656 -20.96875 23.359375 -20.03125 C 24.992188 -19.101562 26.363281 -17.894531 27.46875 -16.40625 C 28.582031 -14.914062 29.140625 -13.003906 29.140625 -10.671875 C 29.140625 -7.410156 28.015625 -4.695312 25.765625 -2.53125 C 23.523438 -0.375 20.421875 0.703125 16.453125 0.703125 Z M 16.453125 0.703125 "/></g></g></g><g fill="#f2f2f4" fill-opacity="1"><g transform="translate(252.937873, 208.499986)"><g><path d="M 11.8125 0.703125 C 10.125 0.703125 8.648438 0.078125 7.390625 -1.171875 C 6.140625 -2.429688 5.515625 -3.9375 5.515625 -5.6875 C 5.515625 -7.4375 6.140625 -8.9375 7.390625 -10.1875 C 8.648438 -11.445312 10.125 -12.078125 11.8125 -12.078125 C 13.5625 -12.078125 15.078125 -11.445312 16.359375 -10.1875 C 17.640625 -8.9375 18.28125 -7.4375 18.28125 -5.6875 C 18.28125 -3.9375 17.640625 -2.429688 16.359375 -1.171875 C 15.078125 0.078125 13.5625 0.703125 11.8125 0.703125 Z M 11.8125 0.703125 "/></g></g></g><g fill="#f2f2f4" fill-opacity="1"><g transform="translate(276.649046, 208.499986)"><g><path d="M 44.1875 -9.09375 L 45.765625 -9.09375 L 45.765625 0 C 45.359375 0.175781 44.90625 0.335938 44.40625 0.484375 C 43.90625 0.628906 43.363281 0.703125 42.78125 0.703125 C 40.445312 0.703125 38.347656 0.164062 36.484375 -0.90625 C 34.617188 -1.988281 33.132812 -3.4375 32.03125 -5.25 C 30.625 -3.4375 28.914062 -1.988281 26.90625 -0.90625 C 24.894531 0.164062 22.601562 0.703125 20.03125 0.703125 C 16.820312 0.703125 13.90625 -0.113281 11.28125 -1.75 C 8.65625 -3.382812 6.570312 -5.570312 5.03125 -8.3125 C 3.488281 -11.050781 2.71875 -14.113281 2.71875 -17.5 C 2.71875 -20.882812 3.488281 -23.945312 5.03125 -26.6875 C 6.570312 -29.425781 8.65625 -31.613281 11.28125 -33.25 C 13.90625 -34.882812 16.820312 -35.703125 20.03125 -35.703125 C 22.070312 -35.703125 23.925781 -35.363281 25.59375 -34.6875 C 27.257812 -34.019531 28.734375 -33.101562 30.015625 -31.9375 L 30.015625 -35 L 41.125 -35 L 41.125 -12.515625 C 41.125 -11.054688 41.441406 -10.117188 42.078125 -9.703125 C 42.722656 -9.296875 43.425781 -9.09375 44.1875 -9.09375 Z M 22.21875 -9.1875 C 24.5 -9.1875 26.453125 -9.988281 28.078125 -11.59375 C 29.710938 -13.195312 30.53125 -15.164062 30.53125 -17.5 C 30.53125 -19.832031 29.710938 -21.800781 28.078125 -23.40625 C 26.453125 -25.007812 24.5 -25.8125 22.21875 -25.8125 C 19.882812 -25.8125 17.914062 -25.007812 16.3125 -23.40625 C 14.707031 -21.800781 13.90625 -19.832031 13.90625 -17.5 C 13.90625 -15.164062 14.707031 -13.195312 16.3125 -11.59375 C 17.914062 -9.988281 19.882812 -9.1875 22.21875 -9.1875 Z M 22.21875 -9.1875 "/></g></g></g><g fill="#f2f2f4" fill-opacity="1"><g transform="translate(323.721385, 208.499986)"><g><path d="M 10.9375 -40.859375 C 9.300781 -40.859375 7.867188 -41.46875 6.640625 -42.6875 C 5.421875 -43.914062 4.8125 -45.347656 4.8125 -46.984375 C 4.8125 -48.679688 5.421875 -50.125 6.640625 -51.3125 C 7.867188 -52.507812 9.300781 -53.109375 10.9375 -53.109375 C 12.625 -53.109375 14.066406 -52.507812 15.265625 -51.3125 C 16.460938 -50.125 17.0625 -48.679688 17.0625 -46.984375 C 17.0625 -45.347656 16.460938 -43.914062 15.265625 -42.6875 C 14.066406 -41.46875 12.625 -40.859375 10.9375 -40.859375 Z M 5.34375 0 L 5.34375 -35 L 16.453125 -35 L 16.453125 0 Z M 5.34375 0 "/></g></g></g></svg>