<svg xmlns="http://www.w3.org/2000/svg" xmlns:xlink="http://www.w3.org/1999/xlink" width="500" zoomAndPan="magnify" viewBox="0 0 375 112.499997" height="150" preserveAspectRatio="xMidYMid meet" version="1.0"><defs><g/></defs><g fill="#f2f2f4" fill-opacity="1"><g transform="translate(30.087535, 76.90818)"><g><path d="M 26.21875 -35.546875 C 29.414062 -35.546875 32.304688 -34.726562 34.890625 -33.09375 C 37.472656 -31.46875 39.53125 -29.289062 41.0625 -26.5625 C 42.601562 -23.832031 43.375 -20.785156 43.375 -17.421875 C 43.375 -14.054688 42.601562 -11.007812 41.0625 -8.28125 C 39.53125 -5.550781 37.472656 -3.367188 34.890625 -1.734375 C 32.304688 -0.109375 29.414062 0.703125 26.21875 0.703125 C 24.25 0.703125 22.4375 0.367188 20.78125 -0.296875 C 19.125 -0.972656 17.628906 -1.890625 16.296875 -3.046875 L 16.296875 21 L 5.140625 20.90625 L 5.140625 -34.84375 L 16.296875 -34.75 L 16.296875 -31.796875 C 17.628906 -32.953125 19.125 -33.863281 20.78125 -34.53125 C 22.4375 -35.207031 24.25 -35.546875 26.21875 -35.546875 Z M 24.046875 -9.140625 C 26.367188 -9.140625 28.328125 -9.9375 29.921875 -11.53125 C 31.515625 -13.132812 32.3125 -15.097656 32.3125 -17.421875 C 32.3125 -19.742188 31.515625 -21.703125 29.921875 -23.296875 C 28.328125 -24.898438 26.367188 -25.703125 24.046875 -25.703125 C 21.722656 -25.703125 19.757812 -24.898438 18.15625 -23.296875 C 16.5625 -21.703125 15.765625 -19.742188 15.765625 -17.421875 C 15.765625 -15.097656 16.5625 -13.132812 18.15625 -11.53125 C 19.757812 -9.9375 21.722656 -9.140625 24.046875 -9.140625 Z M 24.046875 -9.140625 "/></g></g></g><g fill="#f2f2f4" fill-opacity="1"><g transform="translate(76.167628, 76.90818)"><g><path d="M 28.390625 -34.84375 L 39.890625 -34.84375 L 17.59375 20.90625 L 5.921875 20.90625 L 14.109375 0.78125 L -0.4375 -34.84375 L 11.15625 -34.84375 L 19.859375 -11.765625 Z M 28.390625 -34.84375 "/></g></g></g><g fill="#f2f2f4" fill-opacity="1"><g transform="translate(115.714635, 76.90818)"><g><path d="M 46.6875 -35.546875 C 50.519531 -35.546875 53.46875 -34.3125 55.53125 -31.84375 C 57.59375 -29.375 58.625 -26.101562 58.625 -22.03125 L 58.625 0 L 47.5625 0 L 47.5625 -20.203125 C 47.5625 -21.710938 47.082031 -23.003906 46.125 -24.078125 C 45.164062 -25.160156 43.929688 -25.703125 42.421875 -25.703125 C 40.734375 -25.703125 39.484375 -25.101562 38.671875 -23.90625 C 37.859375 -22.71875 37.453125 -21.484375 37.453125 -20.203125 L 37.453125 0 L 26.3125 0 L 26.3125 -20.203125 C 26.3125 -21.710938 25.84375 -23.003906 24.90625 -24.078125 C 23.976562 -25.160156 22.757812 -25.703125 21.25 -25.703125 C 19.570312 -25.703125 18.328125 -25.101562 17.515625 -23.90625 C 16.703125 -22.71875 16.296875 -21.484375 16.296875 -20.203125 L 16.296875 0 L 5.140625 0 L 5.140625 -34.84375 L 16.296875 -34.84375 L 16.296875 -30.578125 C 17.453125 -32.085938 18.828125 -33.289062 20.421875 -34.1875 C 22.023438 -35.09375 23.8125 -35.546875 25.78125 -35.546875 C 27.988281 -35.546875 29.945312 -34.992188 31.65625 -33.890625 C 33.375 -32.785156 34.726562 -31.300781 35.71875 -29.4375 C 36.820312 -31.351562 38.300781 -32.847656 40.15625 -33.921875 C 42.007812 -35.003906 44.1875 -35.546875 46.6875 -35.546875 Z M 46.6875 -35.546875 "/></g></g></g><g fill="#f2f2f4" fill-opacity="1"><g transform="translate(178.780783, 76.90818)"><g><path d="M 40.59375 -17.515625 L 40.59375 -15.59375 L 13.9375 -15.59375 C 14.164062 -13.09375 14.945312 -11.128906 16.28125 -9.703125 C 17.625 -8.285156 19.539062 -7.578125 22.03125 -7.578125 C 25.863281 -7.578125 28.304688 -9.054688 29.359375 -12.015625 L 40.0625 -12.015625 C 39.195312 -8.242188 37.207031 -5.179688 34.09375 -2.828125 C 30.988281 -0.472656 27.03125 0.703125 22.21875 0.703125 C 18.320312 0.703125 14.90625 -0.0507812 11.96875 -1.5625 C 9.039062 -3.070312 6.765625 -5.191406 5.140625 -7.921875 C 3.515625 -10.648438 2.703125 -13.816406 2.703125 -17.421875 C 2.703125 -21.078125 3.515625 -24.269531 5.140625 -27 C 6.765625 -29.726562 9.03125 -31.847656 11.9375 -33.359375 C 14.84375 -34.867188 18.148438 -35.625 21.859375 -35.625 C 25.640625 -35.625 28.921875 -34.867188 31.703125 -33.359375 C 34.492188 -31.847656 36.671875 -29.742188 38.234375 -27.046875 C 39.804688 -24.347656 40.59375 -21.171875 40.59375 -17.515625 Z M 22.03125 -27.09375 C 20.0625 -27.09375 18.476562 -26.671875 17.28125 -25.828125 C 16.09375 -24.984375 15.210938 -23.804688 14.640625 -22.296875 L 29.09375 -22.296875 C 28.507812 -23.804688 27.648438 -24.984375 26.515625 -25.828125 C 25.390625 -26.671875 23.894531 -27.09375 22.03125 -27.09375 Z M 22.03125 -27.09375 "/></g></g></g><g fill="#f2f2f4" fill-opacity="1"><g transform="translate(221.986331, 76.90818)"><g><path d="M 16.375 0.703125 C 13.300781 0.703125 10.335938 -0.0195312 7.484375 -1.46875 C 4.640625 -2.925781 2.695312 -4.992188 1.65625 -7.671875 L 9.84375 -11.765625 C 10.65625 -10.304688 11.597656 -9.328125 12.671875 -8.828125 C 13.742188 -8.335938 14.742188 -8.09375 15.671875 -8.09375 C 16.609375 -8.09375 17.351562 -8.28125 17.90625 -8.65625 C 18.457031 -9.039062 18.734375 -9.582031 18.734375 -10.28125 C 18.734375 -10.914062 18.425781 -11.476562 17.8125 -11.96875 C 17.207031 -12.46875 16.117188 -13.007812 14.546875 -13.59375 C 13.210938 -14.113281 11.6875 -14.765625 9.96875 -15.546875 C 8.257812 -16.328125 6.765625 -17.414062 5.484375 -18.8125 C 4.210938 -20.207031 3.578125 -22.066406 3.578125 -24.390625 C 3.578125 -26.367188 4.113281 -28.195312 5.1875 -29.875 C 6.257812 -31.5625 7.765625 -32.925781 9.703125 -33.96875 C 11.648438 -35.019531 13.929688 -35.546875 16.546875 -35.546875 C 18.984375 -35.546875 21.234375 -35.109375 23.296875 -34.234375 C 25.359375 -33.359375 27.03125 -32.253906 28.3125 -30.921875 L 22.734375 -24.65625 C 22.210938 -25.289062 21.472656 -25.867188 20.515625 -26.390625 C 19.554688 -26.910156 18.492188 -27.171875 17.328125 -27.171875 C 16.398438 -27.171875 15.703125 -26.984375 15.234375 -26.609375 C 14.773438 -26.234375 14.546875 -25.753906 14.546875 -25.171875 C 14.546875 -24.535156 14.847656 -24.023438 15.453125 -23.640625 C 16.066406 -23.265625 17.015625 -22.816406 18.296875 -22.296875 C 19.972656 -21.660156 21.625 -20.875 23.25 -19.9375 C 24.882812 -19.007812 26.25 -17.804688 27.34375 -16.328125 C 28.445312 -14.847656 29 -12.945312 29 -10.625 C 29 -7.375 27.878906 -4.671875 25.640625 -2.515625 C 23.410156 -0.367188 20.320312 0.703125 16.375 0.703125 Z M 16.375 0.703125 "/></g></g></g><g fill="#f2f2f4" fill-opacity="1"><g transform="translate(252.648325, 76.90818)"><g><path d="M 11.765625 0.703125 C 10.078125 0.703125 8.609375 0.078125 7.359375 -1.171875 C 6.109375 -2.421875 5.484375 -3.914062 5.484375 -5.65625 C 5.484375 -7.40625 6.109375 -8.898438 7.359375 -10.140625 C 8.609375 -11.390625 10.078125 -12.015625 11.765625 -12.015625 C 13.503906 -12.015625 15.007812 -11.390625 16.28125 -10.140625 C 17.5625 -8.898438 18.203125 -7.40625 18.203125 -5.65625 C 18.203125 -3.914062 17.5625 -2.421875 16.28125 -1.171875 C 15.007812 0.078125 13.503906 0.703125 11.765625 0.703125 Z M 11.765625 0.703125 "/></g></g></g><g fill="#f2f2f4" fill-opacity="1"><g transform="translate(276.254581, 76.90818)"><g><path d="M 43.984375 -9.0625 L 45.5625 -9.0625 L 45.5625 0 C 45.15625 0.175781 44.703125 0.335938 44.203125 0.484375 C 43.710938 0.628906 43.175781 0.703125 42.59375 0.703125 C 40.269531 0.703125 38.175781 0.164062 36.3125 -0.90625 C 34.457031 -1.988281 32.976562 -3.425781 31.875 -5.21875 C 30.488281 -3.425781 28.789062 -1.988281 26.78125 -0.90625 C 24.78125 0.164062 22.503906 0.703125 19.953125 0.703125 C 16.753906 0.703125 13.847656 -0.109375 11.234375 -1.734375 C 8.617188 -3.367188 6.539062 -5.550781 5 -8.28125 C 3.46875 -11.007812 2.703125 -14.054688 2.703125 -17.421875 C 2.703125 -20.785156 3.46875 -23.832031 5 -26.5625 C 6.539062 -29.289062 8.617188 -31.46875 11.234375 -33.09375 C 13.847656 -34.726562 16.753906 -35.546875 19.953125 -35.546875 C 21.984375 -35.546875 23.828125 -35.207031 25.484375 -34.53125 C 27.140625 -33.863281 28.601562 -32.953125 29.875 -31.796875 L 29.875 -34.84375 L 40.9375 -34.84375 L 40.9375 -12.453125 C 40.9375 -11.003906 41.253906 -10.078125 41.890625 -9.671875 C 42.535156 -9.265625 43.234375 -9.0625 43.984375 -9.0625 Z M 22.125 -9.140625 C 24.382812 -9.140625 26.328125 -9.9375 27.953125 -11.53125 C 29.585938 -13.132812 30.40625 -15.097656 30.40625 -17.421875 C 30.40625 -19.742188 29.585938 -21.703125 27.953125 -23.296875 C 26.328125 -24.898438 24.382812 -25.703125 22.125 -25.703125 C 19.800781 -25.703125 17.835938 -24.898438 16.234375 -23.296875 C 14.640625 -21.703125 13.84375 -19.742188 13.84375 -17.421875 C 13.84375 -15.097656 14.640625 -13.132812 16.234375 -11.53125 C 17.835938 -9.9375 19.800781 -9.140625 22.125 -9.140625 Z M 22.125 -9.140625 "/></g></g></g><g fill="#f2f2f4" fill-opacity="1"><g transform="translate(323.118635, 76.90818)"><g><path d="M 10.890625 -40.6875 C 9.265625 -40.6875 7.84375 -41.296875 6.625 -42.515625 C 5.40625 -43.734375 4.796875 -45.15625 4.796875 -46.78125 C 4.796875 -48.457031 5.40625 -49.890625 6.625 -51.078125 C 7.84375 -52.273438 9.265625 -52.875 10.890625 -52.875 C 12.578125 -52.875 14.015625 -52.273438 15.203125 -51.078125 C 16.390625 -49.890625 16.984375 -48.457031 16.984375 -46.78125 C 16.984375 -45.15625 16.390625 -43.734375 15.203125 -42.515625 C 14.015625 -41.296875 12.578125 -40.6875 10.890625 -40.6875 Z M 5.3125 0 L 5.3125 -34.84375 L 16.375 -34.84375 L 16.375 0 Z M 5.3125 0 "/></g></g></g></svg>