<svg xmlns="http://www.w3.org/2000/svg" xmlns:xlink="http://www.w3.org/1999/xlink" width="500" zoomAndPan="magnify" viewBox="0 0 375 374.999991" height="500" preserveAspectRatio="xMidYMid meet" version="1.0"><defs><g/></defs><rect x="-37.5" width="450" fill="#ffffff" y="-37.499999" height="449.999989" fill-opacity="1"/><rect x="-37.5" width="450" fill="#291b39" y="-37.499999" height="449.999989" fill-opacity="1"/><g fill="#f2f2f4" fill-opacity="1"><g transform="translate(81.843749, 102.048296)"><g><path d="M 64.703125 -87.703125 C 72.585938 -87.703125 79.71875 -85.695312 86.09375 -81.6875 C 92.46875 -77.675781 97.550781 -72.300781 101.34375 -65.5625 C 105.144531 -58.820312 107.046875 -51.300781 107.046875 -43 C 107.046875 -34.6875 105.144531 -27.160156 101.34375 -20.421875 C 97.550781 -13.679688 92.46875 -8.304688 86.09375 -4.296875 C 79.71875 -0.285156 72.585938 1.71875 64.703125 1.71875 C 59.828125 1.71875 55.347656 0.894531 51.265625 -0.75 C 47.179688 -2.394531 43.492188 -4.65625 40.203125 -7.53125 L 40.203125 51.8125 L 12.6875 51.59375 L 12.6875 -85.984375 L 40.203125 -85.765625 L 40.203125 -78.453125 C 43.492188 -81.328125 47.179688 -83.585938 51.265625 -85.234375 C 55.347656 -86.878906 59.828125 -87.703125 64.703125 -87.703125 Z M 59.328125 -22.578125 C 65.054688 -22.578125 69.890625 -24.546875 73.828125 -28.484375 C 77.773438 -32.421875 79.75 -37.257812 79.75 -43 C 79.75 -48.726562 77.773438 -53.5625 73.828125 -57.5 C 69.890625 -61.4375 65.054688 -63.40625 59.328125 -63.40625 C 53.597656 -63.40625 48.757812 -61.4375 44.8125 -57.5 C 40.875 -53.5625 38.90625 -48.726562 38.90625 -43 C 38.90625 -37.257812 40.875 -32.421875 44.8125 -28.484375 C 48.757812 -24.546875 53.597656 -22.578125 59.328125 -22.578125 Z M 59.328125 -22.578125 "/></g></g></g><g fill="#f2f2f4" fill-opacity="1"><g transform="translate(195.560661, 102.048296)"><g><path d="M 70.078125 -85.984375 L 98.453125 -85.984375 L 43.421875 51.59375 L 14.625 51.59375 L 34.828125 1.9375 L -1.078125 -85.984375 L 27.515625 -85.984375 L 49.015625 -29.015625 Z M 70.078125 -85.984375 "/></g></g></g><g fill="#f2f2f4" fill-opacity="1"><g transform="translate(18.527347, 342.79828)"><g><path d="M 115.21875 -87.703125 C 124.675781 -87.703125 131.945312 -84.65625 137.03125 -78.5625 C 142.125 -72.476562 144.671875 -64.421875 144.671875 -54.390625 L 144.671875 0 L 117.375 0 L 117.375 -49.875 C 117.375 -53.59375 116.191406 -56.773438 113.828125 -59.421875 C 111.460938 -62.078125 108.414062 -63.40625 104.6875 -63.40625 C 100.53125 -63.40625 97.445312 -61.9375 95.4375 -59 C 93.4375 -56.0625 92.4375 -53.019531 92.4375 -49.875 L 92.4375 0 L 64.921875 0 L 64.921875 -49.875 C 64.921875 -53.59375 63.773438 -56.773438 61.484375 -59.421875 C 59.191406 -62.078125 56.179688 -63.40625 52.453125 -63.40625 C 48.296875 -63.40625 45.210938 -61.9375 43.203125 -59 C 41.203125 -56.0625 40.203125 -53.019531 40.203125 -49.875 L 40.203125 0 L 12.6875 0 L 12.6875 -85.984375 L 40.203125 -85.984375 L 40.203125 -75.453125 C 43.066406 -79.179688 46.46875 -82.15625 50.40625 -84.375 C 54.34375 -86.59375 58.75 -87.703125 63.625 -87.703125 C 69.070312 -87.703125 73.910156 -86.335938 78.140625 -83.609375 C 82.367188 -80.890625 85.703125 -77.238281 88.140625 -72.65625 C 90.859375 -77.382812 94.507812 -81.070312 99.09375 -83.71875 C 103.675781 -86.375 109.050781 -87.703125 115.21875 -87.703125 Z M 115.21875 -87.703125 "/></g></g></g><g fill="#f2f2f4" fill-opacity="1"><g transform="translate(174.162589, 342.79828)"><g><path d="M 100.171875 -43.203125 L 100.171875 -38.484375 L 34.390625 -38.484375 C 34.960938 -32.316406 36.894531 -27.476562 40.1875 -23.96875 C 43.488281 -20.457031 48.222656 -18.703125 54.390625 -18.703125 C 63.847656 -18.703125 69.863281 -22.359375 72.4375 -29.671875 L 98.875 -29.671875 C 96.726562 -20.347656 91.820312 -12.785156 84.15625 -6.984375 C 76.488281 -1.179688 66.707031 1.71875 54.8125 1.71875 C 45.207031 1.71875 36.785156 -0.140625 29.546875 -3.859375 C 22.316406 -7.585938 16.691406 -12.820312 12.671875 -19.5625 C 8.660156 -26.300781 6.65625 -34.113281 6.65625 -43 C 6.65625 -52.019531 8.660156 -59.894531 12.671875 -66.625 C 16.691406 -73.363281 22.285156 -78.597656 29.453125 -82.328125 C 36.617188 -86.054688 44.785156 -87.921875 53.953125 -87.921875 C 63.265625 -87.921875 71.359375 -86.054688 78.234375 -82.328125 C 85.117188 -78.597656 90.492188 -73.398438 94.359375 -66.734375 C 98.234375 -60.078125 100.171875 -52.234375 100.171875 -43.203125 Z M 54.390625 -66.859375 C 49.515625 -66.859375 45.609375 -65.816406 42.671875 -63.734375 C 39.734375 -61.660156 37.546875 -58.757812 36.109375 -55.03125 L 71.796875 -55.03125 C 70.359375 -58.757812 68.242188 -61.660156 65.453125 -63.734375 C 62.660156 -65.816406 58.972656 -66.859375 54.390625 -66.859375 Z M 54.390625 -66.859375 "/></g></g></g><g fill="#f2f2f4" fill-opacity="1"><g transform="translate(280.78563, 342.79828)"><g><path d="M 40.40625 1.71875 C 32.8125 1.71875 25.503906 -0.0703125 18.484375 -3.65625 C 11.460938 -7.238281 6.660156 -12.328125 4.078125 -18.921875 L 24.296875 -29.015625 C 26.296875 -25.429688 28.617188 -23.03125 31.265625 -21.8125 C 33.921875 -20.59375 36.394531 -19.984375 38.6875 -19.984375 C 40.976562 -19.984375 42.804688 -20.445312 44.171875 -21.375 C 45.535156 -22.3125 46.21875 -23.640625 46.21875 -25.359375 C 46.21875 -26.941406 45.460938 -28.34375 43.953125 -29.5625 C 42.453125 -30.78125 39.769531 -32.101562 35.90625 -33.53125 C 32.601562 -34.820312 28.835938 -36.429688 24.609375 -38.359375 C 20.378906 -40.296875 16.6875 -42.984375 13.53125 -46.421875 C 10.382812 -49.867188 8.8125 -54.457031 8.8125 -60.1875 C 8.8125 -65.0625 10.132812 -69.578125 12.78125 -73.734375 C 15.4375 -77.890625 19.164062 -81.253906 23.96875 -83.828125 C 28.769531 -86.410156 34.394531 -87.703125 40.84375 -87.703125 C 46.863281 -87.703125 52.414062 -86.625 57.5 -84.46875 C 62.59375 -82.320312 66.710938 -79.601562 69.859375 -76.3125 L 56.109375 -60.828125 C 54.816406 -62.410156 52.988281 -63.84375 50.625 -65.125 C 48.257812 -66.414062 45.644531 -67.0625 42.78125 -67.0625 C 40.488281 -67.0625 38.769531 -66.59375 37.625 -65.65625 C 36.476562 -64.726562 35.90625 -63.550781 35.90625 -62.125 C 35.90625 -60.550781 36.65625 -59.296875 38.15625 -58.359375 C 39.65625 -57.429688 41.984375 -56.320312 45.140625 -55.03125 C 49.296875 -53.457031 53.378906 -51.519531 57.390625 -49.21875 C 61.398438 -46.925781 64.765625 -43.953125 67.484375 -40.296875 C 70.210938 -36.648438 71.578125 -31.957031 71.578125 -26.21875 C 71.578125 -18.195312 68.816406 -11.535156 63.296875 -6.234375 C 57.785156 -0.929688 50.15625 1.71875 40.40625 1.71875 Z M 40.40625 1.71875 "/></g></g></g></svg>